{"title":"All.Eyes.On.Me.2017.CAM.XViD-26k","magnet":"magnet:?xt=urn:btih:1e91f6c45251cb886d0847fb4c58e5b154a61499&dn=All.Eyes.On.Me.2017.CAM.XViD-26k&tr=udp%3A%2F%2Ftracker.leechers-paradise.org%3A6969&tr=udp%3A%2F%2Fzer0day.ch%3A1337&tr=udp%3A%2F%2Fopen.demonii.com%3A1337&tr=udp%3A%2F%2Ftracker.coppersurfer.tk%3A6969&tr=udp%3A%2F%2Fexodus.desync.com%3A6969","uploader":"makintos13","categoryP":"video","categoryS":"movies","size":"1526930673","seeders":"8","leechers":"45","description":"screens:\r\n <a href=\"\nhttps://imgmak.com/zO9\" rel=\"nofollow\" target=\"_NEW\">\nhttps://imgmak.com/zO9</a>\r\n <a href=\"\nhttps://imgmak.com/zOM\" rel=\"nofollow\" target=\"_NEW\">\nhttps://imgmak.com/zOM</a>\r\n <a href=\"\nhttps://imgmak.com/zOO\" rel=\"nofollow\" target=\"_NEW\">\nhttps://imgmak.com/zOO</a>\r\n <a href=\"\nhttps://imgmak.com/zOP\" rel=\"nofollow\" target=\"_NEW\">\nhttps://imgmak.com/zOP</a>\r\n\r\n\r\n\r\n\r\n\r\nComplete name               : All.Eyes.On.Me.2017.CAM.XViD-26k.avi\r\nFormat                      : AVI\r\nFormat/Info                 : Audio Video Interleave\r\nFile size                   : 1.38 GiB\r\nDuration                    : 2h 14mn\r\nOverall bit rate            : 1 464 Kbps\r\n\r\nVideo\r\nID                          : 0\r\nFormat                      : MPEG-4 Visual\r\nFormat profile              : Advanced <a class=\"__cf_email__\" href=\"/cdn-cgi/l/email-protection\" data-cfemail=\"5d0e34302d31381d1168\">[email&#xA0;protected]</a><script data-cfhash=\"f9e31\" type=\"text/javascript\">/* <![CDATA[ */!function(t,e,r,n,c,a,p){try{t=document.currentScript||function(){for(t=document.getElementsByTagName('script'),e=t.length;e--;)if(t[e].getAttribute('data-cfhash'))return t[e]}();if(t&&(c=t.previousSibling)){p=t.parentNode;if(a=c.getAttribute('data-cfemail')){for(e='',r='0x'+a.substr(0,2)|0,n=2;a.length-n;n+=2)e+='%'+('0'+('0x'+a.substr(n,2)^r).toString(16)).slice(-2);p.replaceChild(document.createTextNode(decodeURIComponent(e)),c)}p.removeChild(t)}}catch(u){}}()/* ]]> */</script>\r\nFormat settings, BVOP       : 2\r\nFormat settings, QPel       : Yes\r\nFormat settings, GMC        : No warppoints\r\nFormat settings, Matrix     : Default (H.263)\r\nMuxing mode                 : Packed bitstream\r\nCodec ID                    : XVID\r\nCodec ID/Hint               : XviD\r\nDuration                    : 2h 14mn\r\nBit rate                    : 1 322 Kbps\r\nWidth                       : 720 pixels\r\nHeight                      : 336 pixels\r\nDisplay aspect ratio        : 2.143\r\nFrame rate                  : 29.970 fps\r\nColor space                 : YUV\r\nChroma subsampling          : 4:2:0\r\nBit depth                   : 8 bits\r\nScan type                   : Progressive\r\nCompression mode            : Lossy\r\nBits/(Pixel*Frame)          : 0.182\r\nStream size                 : 1.24 GiB (90%)\r\nWriting library             : XviD 67\r\n\r\nAudio\r\nID                          : 1\r\nFormat                      : MPEG Audio\r\nFormat version              : Version 1\r\nFormat profile              : Layer 3\r\nMode                        : Joint stereo\r\nCodec ID                    : 55\r\nCodec ID/Hint               : MP3\r\nDuration                    : 2h 14mn\r\nBit rate mode               : Constant\r\nBit rate                    : 128 Kbps\r\nChannel(s)                  : 2 channels\r\nSampling rate               : 48.0 KHz\r\nCompression mode            : Lossy\r\nStream size                 : 123 MiB (9%)\r\nAlignment                   : Aligned on interleaves\r\nInterleave, duration        : 24 ms (0.72 video frame)\r\nInterleave, preload duratio : 192 ms","last_updated":"2017-06-29T12:01:04.201Z","parsed":{"xt":"urn:btih:1e91f6c45251cb886d0847fb4c58e5b154a61499","dn":"All.Eyes.On.Me.2017.CAM.XViD-26k","tr":["udp://exodus.desync.com:6969","udp://open.demonii.com:1337","udp://tracker.coppersurfer.tk:6969","udp://tracker.leechers-paradise.org:6969","udp://zer0day.ch:1337"],"infoHash":"1e91f6c45251cb886d0847fb4c58e5b154a61499","infoHashBuffer":{"type":"Buffer","data":[30,145,246,196,82,81,203,136,109,8,71,251,76,88,229,177,84,166,20,153]},"name":"All.Eyes.On.Me.2017.CAM.XViD-26k","announce":["udp://exodus.desync.com:6969","udp://open.demonii.com:1337","udp://tracker.coppersurfer.tk:6969","udp://tracker.leechers-paradise.org:6969","udp://zer0day.ch:1337"],"urlList":[]}}